<?xml version="1.0" standalone="no"?>
<!DOCTYPE svg PUBLIC "-//W3C//DTD SVG 20010904//EN"
 "http://www.w3.org/TR/2001/REC-SVG-20010904/DTD/svg10.dtd">
<svg version="1.0" xmlns="http://www.w3.org/2000/svg"
 width="940.000000pt" height="940.000000pt" viewBox="0 0 940.000000 940.000000"
 preserveAspectRatio="xMidYMid meet">
<metadata>
Created by potrace 1.14, written by Peter Selinger 2001-2017
</metadata>
<g transform="translate(0.000000,940.000000) scale(0.100000,-0.100000)"
fill="#000000" stroke="none">
<path d="M4448 8974 c-2 -1 -35 -5 -73 -8 -39 -4 -90 -9 -115 -12 -25 -3 -57
-6 -72 -7 -16 0 -28 -5 -28 -11 0 -6 -5 -4 -10 4 -5 8 -10 10 -10 5 0 -6 -10
-11 -22 -11 -46 -1 -290 -49 -375 -73 -18 -5 -33 -7 -33 -4 0 3 -7 0 -15 -7
-8 -7 -15 -10 -15 -7 0 4 -19 -1 -42 -9 -23 -8 -54 -17 -70 -19 -16 -3 -37
-10 -46 -15 -14 -7 -52 -18 -82 -24 -3 -1 -9 -4 -15 -7 -5 -4 -23 -9 -38 -13
-15 -4 -26 -10 -23 -14 2 -4 -7 -8 -20 -9 -45 -4 -54 -6 -54 -15 0 -4 -3 -7
-7 -7 -21 3 -44 -2 -39 -9 2 -4 -3 -8 -12 -9 -9 -1 -39 -12 -67 -24 -27 -12
-52 -23 -55 -23 -20 -5 -70 -32 -70 -39 0 -5 -4 -5 -10 -2 -9 6 -49 -10 -60
-24 -3 -4 -18 -11 -35 -17 -16 -6 -29 -16 -28 -22 2 -6 -4 -9 -12 -6 -8 3 -28
-4 -45 -16 -16 -12 -30 -18 -30 -15 0 4 -12 -3 -26 -14 -15 -12 -33 -21 -40
-21 -8 0 -14 -4 -14 -10 0 -5 -5 -10 -10 -10 -6 0 -40 -18 -76 -40 -36 -22
-68 -40 -71 -40 -2 0 -11 -6 -18 -12 -28 -26 -41 -34 -75 -54 -19 -10 -40 -23
-47 -29 -51 -42 -96 -70 -106 -67 -5 1 -6 -2 -3 -7 4 -5 -7 -15 -23 -22 -16
-7 -28 -16 -25 -20 2 -4 -5 -10 -16 -14 -11 -3 -20 -11 -20 -17 0 -6 -3 -9 -6
-5 -4 3 -22 -9 -40 -28 -19 -19 -36 -35 -39 -35 -5 0 -56 -44 -90 -77 -12 -13
-26 -23 -31 -23 -5 0 -20 -16 -34 -34 -14 -19 -27 -33 -28 -31 -2 2 -40 -33
-85 -78 -45 -45 -85 -81 -90 -79 -5 1 -6 -2 -3 -6 3 -5 -13 -29 -37 -54 -63
-67 -125 -138 -119 -138 3 0 -7 -11 -22 -25 -15 -14 -24 -25 -21 -25 4 0 -1
-7 -10 -16 -9 -9 -23 -27 -32 -40 -8 -13 -19 -21 -24 -18 -5 3 -8 2 -7 -3 4
-11 -44 -83 -54 -83 -5 0 -8 -6 -8 -13 0 -8 -9 -22 -20 -32 -11 -10 -18 -20
-16 -23 3 -2 -4 -13 -15 -25 -10 -11 -19 -27 -19 -34 0 -8 -4 -11 -10 -8 -5 3
-10 -3 -10 -14 0 -12 -4 -21 -10 -21 -5 0 -10 -5 -10 -10 0 -6 -5 -16 -10 -23
-20 -23 -61 -89 -63 -100 -1 -7 -9 -19 -17 -27 -8 -8 -16 -22 -18 -30 -2 -8
-9 -18 -15 -22 -7 -4 -9 -8 -5 -8 4 0 -6 -23 -22 -50 -17 -28 -30 -55 -30 -59
0 -5 -7 -14 -15 -21 -9 -7 -13 -15 -11 -18 3 -2 -1 -14 -9 -26 -8 -11 -15 -27
-15 -34 0 -8 -9 -26 -19 -40 -10 -15 -19 -29 -18 -32 0 -3 -10 -27 -22 -55
-13 -27 -24 -54 -25 -60 -1 -5 -8 -20 -14 -33 -7 -12 -10 -27 -7 -32 3 -6 2
-10 -3 -10 -12 0 -34 -49 -27 -61 4 -5 1 -9 -4 -9 -6 0 -11 -7 -11 -16 0 -9
-6 -30 -14 -47 -17 -40 -29 -69 -31 -82 -1 -5 -3 -13 -5 -17 -5 -14 -7 -23
-15 -55 -5 -20 -12 -30 -19 -26 -7 4 -6 1 1 -8 7 -9 9 -20 4 -25 -10 -10 -47
-145 -43 -156 1 -5 -3 -8 -9 -8 -5 0 -7 -4 -4 -10 3 -5 0 -29 -6 -52 -7 -24
-13 -50 -15 -58 -1 -8 -5 -33 -9 -55 -4 -22 -8 -48 -8 -57 -1 -10 -4 -18 -7
-18 -3 0 -6 -17 -8 -38 -3 -49 -6 -65 -15 -79 -5 -8 -3 -13 3 -13 6 0 8 -5 5
-11 -4 -5 -9 -22 -11 -37 -6 -41 -12 -77 -14 -77 -5 0 -13 -246 -13 -440 -1
-228 7 -402 18 -413 3 -3 -1 -12 -8 -20 -10 -13 -9 -14 2 -8 9 6 12 5 9 -5 -3
-8 -1 -23 5 -33 8 -16 6 -18 -9 -12 -18 6 -18 5 -2 -7 10 -8 15 -17 12 -20 -3
-3 -3 -11 2 -18 4 -7 9 -33 11 -58 7 -94 8 -106 14 -116 4 -5 12 -41 19 -80 6
-38 16 -78 21 -87 5 -10 9 -28 9 -40 0 -13 7 -45 16 -73 8 -27 17 -58 20 -67
10 -41 13 -55 23 -85 5 -17 7 -34 3 -37 -3 -3 0 -6 7 -6 7 0 10 -4 6 -9 -3 -5
0 -13 6 -16 5 -4 8 -13 5 -20 -2 -7 4 -27 15 -44 11 -18 15 -30 10 -27 -5 4
-3 -7 6 -24 8 -17 16 -37 17 -44 1 -8 7 -21 14 -29 7 -7 13 -26 14 -41 1 -14
6 -26 10 -26 4 0 7 -3 7 -7 -3 -19 2 -33 17 -47 12 -12 12 -16 2 -16 -9 0 -9
-3 -2 -8 9 -6 54 -93 58 -112 1 -3 5 -11 9 -17 5 -7 5 -17 2 -23 -3 -5 -1 -10
5 -10 6 0 16 -13 21 -30 6 -16 15 -30 20 -30 5 0 8 -3 7 -7 -4 -12 26 -73 34
-73 5 0 8 -9 8 -20 0 -11 5 -20 11 -20 5 0 8 -4 4 -9 -3 -5 0 -16 7 -23 15
-16 34 -48 64 -105 12 -23 24 -39 28 -36 6 6 10 -15 9 -44 -1 -7 2 -11 6 -8 8
5 24 -16 83 -110 7 -11 15 -22 18 -25 3 -3 17 -21 30 -40 13 -19 28 -38 33
-41 6 -4 7 -14 4 -22 -4 -11 -1 -14 9 -10 8 3 14 -1 14 -11 0 -9 5 -16 11 -16
6 0 9 -8 6 -19 -3 -12 1 -18 10 -17 9 0 20 -8 27 -19 6 -11 19 -27 28 -36 10
-9 15 -19 11 -23 -3 -3 1 -6 10 -6 16 0 22 -12 18 -33 -1 -5 3 -6 9 -2 5 3 10
2 10 -3 0 -5 18 -28 39 -50 22 -22 37 -43 34 -46 -4 -3 1 -6 10 -6 10 0 17 -4
17 -8 0 -5 38 -48 85 -96 47 -48 82 -93 79 -98 -5 -7 -2 -8 5 -4 8 5 27 -7 50
-31 21 -21 57 -54 80 -73 76 -64 106 -95 103 -105 -2 -5 0 -7 4 -3 6 7 51 -20
85 -52 26 -24 59 -50 64 -50 5 0 37 -25 60 -47 8 -7 18 -13 24 -13 6 0 11 -3
11 -8 0 -4 10 -12 23 -17 12 -6 21 -16 20 -23 -2 -6 3 -9 11 -6 7 3 27 -6 44
-20 16 -15 33 -26 36 -26 6 0 64 -38 76 -50 3 -3 22 -13 43 -23 25 -11 36 -21
31 -30 -5 -8 -2 -7 9 2 15 12 17 11 17 -3 0 -9 6 -15 13 -14 6 2 11 -3 9 -10
-1 -8 1 -11 6 -8 9 6 87 -29 112 -50 8 -7 17 -12 20 -11 16 4 109 -50 105 -61
-4 -10 0 -10 17 -1 18 10 20 9 15 -4 -4 -11 -2 -14 8 -11 16 7 135 -43 151
-63 9 -10 13 -11 16 -2 3 8 9 7 20 -5 9 -9 24 -16 32 -16 9 0 16 -6 16 -12 0
-9 4 -8 10 2 6 10 10 11 10 3 0 -7 9 -13 19 -13 11 0 23 -4 26 -10 3 -5 15
-10 26 -10 13 0 18 -4 13 -12 -4 -7 -3 -8 4 -4 13 8 123 -24 117 -34 -2 -3 9
-5 26 -4 16 1 29 -2 29 -8 0 -5 4 -7 9 -3 5 3 12 1 15 -4 4 -5 14 -8 24 -6 9
1 26 -2 37 -8 23 -13 27 -14 56 -16 11 0 18 -5 15 -9 -3 -5 3 -8 12 -8 51 0
83 -5 79 -11 -3 -5 9 -9 26 -10 37 -3 55 -7 80 -18 10 -4 20 -5 23 -2 3 3 20
1 37 -4 18 -5 50 -11 71 -14 22 -3 46 -11 55 -18 12 -9 13 -9 7 1 -4 6 -2 12
3 12 6 0 11 -4 11 -8 0 -4 12 -8 28 -8 17 1 26 -4 24 -12 -1 -8 2 -11 8 -7 6
3 8 10 5 15 -8 13 21 6 41 -10 11 -9 15 -10 10 -2 -8 14 19 12 43 -2 10 -7 12
-6 6 4 -6 9 -4 11 5 5 8 -5 34 -10 59 -12 91 -7 588 -10 654 -4 41 4 72 3 79
-4 8 -7 9 -7 5 1 -5 8 6 13 28 16 20 2 35 0 35 -7 0 -7 3 -7 8 0 7 11 38 16
100 18 17 1 32 6 32 12 0 5 5 3 10 -5 5 -8 10 -10 10 -3 0 6 13 10 30 9 17 -1
30 1 30 6 0 4 7 8 15 8 8 0 15 -6 15 -12 0 -10 2 -10 8 0 5 7 21 15 37 18 16
3 33 8 37 11 5 3 16 -3 23 -13 13 -18 14 -18 9 3 -5 17 -2 21 13 19 10 -2 23
-1 28 3 6 3 15 6 20 7 6 1 36 7 67 13 32 7 63 9 69 5 8 -4 9 -3 5 4 -4 7 -2
13 3 13 37 5 52 7 59 9 4 1 10 2 15 1 4 0 7 3 7 9 0 5 5 10 11 10 5 0 7 -6 4
-12 -4 -7 -1 -6 7 3 7 9 19 14 26 12 6 -3 12 -1 12 4 0 6 6 10 13 11 12 1 47
9 57 12 3 1 9 2 13 1 4 -1 17 5 29 13 11 8 26 12 33 10 7 -3 16 0 20 5 3 6 11
9 16 6 5 -4 9 -1 9 5 0 6 6 10 13 8 6 -1 22 3 35 10 12 7 26 10 31 7 5 -3 11
0 13 7 2 6 11 12 20 14 8 1 32 9 51 19 20 9 42 13 49 9 7 -4 9 -3 5 2 -4 4 13
19 39 31 45 22 49 22 68 6 12 -10 15 -11 9 -3 -18 20 -16 25 11 38 19 8 26 8
30 -1 2 -7 5 -4 5 6 1 10 6 15 11 12 6 -3 10 -2 10 2 0 10 91 49 103 45 5 -1
6 1 3 6 -3 5 14 17 39 27 25 11 41 23 38 29 -4 6 1 5 11 -3 15 -12 17 -12 14
0 -2 8 4 13 14 13 10 -1 16 2 13 6 -5 8 24 24 38 22 4 -1 7 3 7 9 0 6 7 8 16
5 8 -3 12 -2 9 4 -3 6 1 10 10 10 8 0 18 7 21 15 5 12 9 13 20 4 12 -10 13 -9
8 5 -4 11 -1 16 10 16 9 0 16 4 16 9 0 5 8 11 18 15 22 7 49 25 81 53 13 12
28 20 32 18 4 -3 10 2 13 11 4 9 13 14 22 10 8 -3 13 -2 11 2 -3 4 1 13 9 20
8 7 14 9 14 5 0 -4 5 0 11 10 6 9 14 15 20 12 5 -4 9 1 9 9 0 9 3 15 8 14 7
-3 36 19 74 54 10 10 21 18 24 18 6 0 94 74 152 127 14 13 28 20 33 17 5 -3 6
2 3 11 -4 9 -2 15 2 13 5 -2 33 21 62 50 33 33 57 50 65 45 7 -4 5 2 -3 12
-14 17 -13 18 8 13 12 -4 20 -2 16 3 -8 13 21 39 43 39 15 0 16 2 3 10 -11 7
-11 10 -2 10 7 0 10 5 7 10 -6 9 8 14 28 11 4 0 7 6 7 14 0 8 13 27 30 41 16
15 32 36 36 46 3 11 8 17 11 15 6 -7 43 30 43 43 0 6 5 10 12 10 6 0 9 2 6 5
-3 3 12 24 33 45 22 22 39 42 39 45 0 3 11 18 25 33 14 15 25 30 25 35 0 4 11
20 25 35 14 15 25 33 25 40 0 7 5 10 10 7 6 -3 10 0 10 7 0 7 14 29 30 48 16
19 30 40 30 46 0 6 9 19 20 29 11 10 18 20 15 23 -2 3 7 16 21 29 14 12 22 28
19 33 -3 6 1 13 9 16 9 3 16 15 16 25 0 10 4 19 9 19 10 0 37 60 33 73 -1 5 1
6 5 4 5 -3 14 1 21 9 8 9 9 14 2 14 -7 0 -6 6 3 14 8 8 31 50 53 93 21 43 42
80 46 81 5 2 6 8 2 13 -3 5 0 9 7 9 7 0 10 3 6 6 -3 4 1 21 10 38 10 17 18 33
18 36 1 7 35 81 51 111 7 14 11 29 7 33 -3 3 -1 6 6 6 7 0 10 4 6 9 -3 5 -1
12 5 16 5 3 10 15 10 26 0 10 4 19 10 19 5 0 7 7 4 15 -4 8 -1 15 5 15 6 0 10
3 9 8 -3 10 34 125 44 137 4 5 8 19 8 31 0 12 4 24 9 26 7 2 19 54 21 91 0 5
4 5 10 2 6 -3 7 1 4 9 -3 9 -3 24 1 34 9 19 12 28 19 57 22 95 39 162 44 175
3 8 6 29 8 45 1 17 5 44 9 60 3 17 8 41 10 55 2 14 9 59 15 100 7 41 13 104
15 140 2 36 7 74 11 85 8 21 11 527 4 635 -2 36 -9 68 -15 72 -6 5 -6 8 2 8 9
0 10 7 3 24 -6 16 -5 28 3 36 9 10 9 11 0 6 -9 -5 -13 4 -14 31 -1 21 -3 47
-5 58 -1 11 -5 38 -8 60 -3 22 -8 51 -11 65 -6 28 -15 80 -20 119 -2 14 -4 26
-5 26 -1 0 -3 7 -5 15 -2 8 -7 26 -10 40 -3 14 -8 39 -11 55 -3 17 -8 37 -11
45 -3 8 -8 24 -10 35 -2 11 -6 27 -10 35 -6 15 -10 33 -16 68 -2 9 -6 22 -9
27 -9 16 -48 150 -50 173 -1 6 -5 12 -9 12 -7 0 -24 58 -21 72 1 3 -5 12 -13
18 -8 7 -15 18 -15 26 0 7 -5 25 -12 41 -6 15 -12 30 -13 33 -7 20 -30 73 -52
119 -15 29 -26 59 -26 67 0 8 -4 14 -8 14 -4 0 -13 17 -20 38 -6 20 -20 48
-29 62 -10 14 -28 45 -40 70 -12 25 -27 48 -32 51 -5 3 -9 8 -8 10 2 5 -23 62
-30 69 -13 12 -40 60 -34 60 4 0 -2 8 -12 18 -11 9 -26 31 -34 47 -8 17 -21
36 -28 43 -7 8 -19 27 -28 43 -8 17 -24 40 -34 52 -11 12 -20 25 -20 29 0 4
-12 20 -25 34 -14 15 -24 29 -22 31 3 2 -13 22 -34 44 -22 23 -39 46 -39 51 0
5 -5 6 -12 2 -6 -4 -8 -3 -4 4 3 6 -1 17 -9 25 -8 9 -15 21 -15 27 0 6 -4 8
-10 5 -5 -3 -10 -1 -10 5 0 5 -13 24 -30 42 -16 17 -30 35 -30 40 0 5 -4 6
-10 3 -5 -3 -10 -2 -10 4 0 19 -145 173 -154 164 -3 -4 -6 -1 -6 6 0 7 -25 37
-56 66 -31 29 -54 58 -50 63 4 6 -2 8 -14 5 -14 -4 -20 0 -20 13 0 9 -3 15 -6
11 -3 -3 -16 4 -29 16 -28 28 -65 60 -135 117 -30 24 -63 52 -73 62 -10 10
-21 18 -26 18 -4 0 -16 8 -27 18 -10 10 -40 32 -66 50 -25 17 -49 37 -51 44
-4 10 -6 10 -6 1 -1 -9 -7 -7 -20 5 -36 32 -50 42 -76 54 -14 6 -25 14 -25 19
0 4 -18 14 -40 23 -22 9 -40 20 -40 25 0 5 -11 12 -25 15 -14 4 -25 11 -25 16
0 6 -9 10 -20 10 -11 0 -20 5 -20 10 0 6 -6 10 -14 10 -8 0 -21 6 -28 13 -21
20 -68 38 -80 31 -6 -4 -8 -2 -4 4 6 9 -51 40 -218 117 -33 15 -66 28 -73 29
-7 1 -19 8 -25 14 -7 7 -20 12 -30 12 -10 0 -18 4 -18 8 0 4 -10 8 -22 9 -11
1 -25 8 -29 15 -5 7 -9 10 -9 5 0 -4 -16 -1 -35 7 -19 8 -35 12 -35 9 0 -3 -7
0 -15 7 -8 6 -18 9 -24 6 -5 -3 -11 -1 -13 4 -2 6 -13 12 -26 13 -12 0 -22 5
-22 10 0 5 -7 7 -15 4 -8 -4 -17 -2 -20 4 -4 5 -10 7 -15 4 -5 -3 -11 -1 -14
4 -3 5 -23 12 -43 17 -43 9 -51 10 -58 14 -3 1 -9 4 -15 5 -5 1 -11 3 -12 5
-2 1 -10 3 -18 5 -8 2 -43 10 -77 18 -34 8 -64 12 -67 9 -3 -3 -6 0 -6 6 0 6
-8 11 -17 10 -10 0 -29 3 -43 6 -14 4 -41 8 -60 11 -19 2 -35 4 -35 5 0 4 -43
12 -67 13 -16 1 -28 4 -28 7 0 3 -17 6 -38 7 -38 2 -109 10 -165 18 -17 3 -50
8 -72 10 -45 6 -603 14 -607 9z"/>
<path d="M790 4039 c0 -5 5 -7 10 -4 6 3 10 8 10 11 0 2 -4 4 -10 4 -5 0 -10
-5 -10 -11z"/>
<path d="M1073 3285 c0 -8 4 -12 9 -9 5 3 6 10 3 15 -9 13 -12 11 -12 -6z"/>
<path d="M8150 3001 c0 -6 4 -13 10 -16 6 -3 7 1 4 9 -7 18 -14 21 -14 7z"/>
<path d="M1556 2442 c-3 -5 1 -9 9 -9 8 0 12 4 9 9 -3 4 -7 8 -9 8 -2 0 -6 -4
-9 -8z"/>
<path d="M1587 2299 c7 -7 15 -10 18 -7 3 3 -2 9 -12 12 -14 6 -15 5 -6 -5z"/>
<path d="M7715 2251 c-3 -5 -2 -12 3 -15 5 -3 9 1 9 9 0 17 -3 19 -12 6z"/>
<path d="M1440 2120 c-9 -6 -10 -10 -3 -10 6 0 15 5 18 10 8 12 4 12 -15 0z"/>
<path d="M1996 1887 c3 -10 9 -15 12 -12 3 3 0 11 -7 18 -10 9 -11 8 -5 -6z"/>
<path d="M7320 1880 c-9 -6 -10 -10 -3 -10 6 0 15 5 18 10 8 12 4 12 -15 0z"/>
<path d="M2466 1638 c3 -5 10 -6 15 -3 13 9 11 12 -6 12 -8 0 -12 -4 -9 -9z"/>
<path d="M2510 1561 c0 -6 4 -13 10 -16 6 -3 7 1 4 9 -7 18 -14 21 -14 7z"/>
<path d="M6296 1378 c3 -5 10 -6 15 -3 13 9 11 12 -6 12 -8 0 -12 -4 -9 -9z"/>
<path d="M2635 1361 c-3 -5 -2 -12 3 -15 5 -3 9 1 9 9 0 17 -3 19 -12 6z"/>
<path d="M6624 1362 c4 -3 14 -7 22 -8 9 -1 13 0 10 4 -4 3 -14 7 -22 8 -9 1
-13 0 -10 -4z"/>
<path d="M2833 1315 c0 -8 4 -12 9 -9 5 3 6 10 3 15 -9 13 -12 11 -12 -6z"/>
<path d="M6390 1326 c0 -2 7 -7 16 -10 8 -3 12 -2 9 4 -6 10 -25 14 -25 6z"/>
<path d="M6715 1291 c-3 -5 -2 -12 3 -15 5 -3 9 1 9 9 0 17 -3 19 -12 6z"/>
<path d="M6100 1280 c-9 -6 -10 -10 -3 -10 6 0 15 5 18 10 8 12 4 12 -15 0z"/>
<path d="M5974 1236 c1 -8 5 -18 8 -22 4 -3 5 1 4 10 -1 8 -5 18 -8 22 -4 3
-5 -1 -4 -10z"/>
<path d="M6020 1246 c0 -2 8 -10 18 -17 15 -13 16 -12 3 4 -13 16 -21 21 -21
13z"/>
<path d="M3494 1196 c1 -8 5 -18 8 -22 4 -3 5 1 4 10 -1 8 -5 18 -8 22 -4 3
-5 -1 -4 -10z"/>
<path d="M6190 1200 c0 -5 5 -10 11 -10 5 0 7 5 4 10 -3 6 -8 10 -11 10 -2 0
-4 -4 -4 -10z"/>
<path d="M3595 1190 c-4 -6 -11 -7 -17 -4 -7 4 -8 2 -4 -5 6 -9 11 -9 22 0 14
11 18 19 10 19 -3 0 -8 -5 -11 -10z"/>
<path d="M3526 1182 c-3 -5 1 -9 9 -9 8 0 12 4 9 9 -3 4 -7 8 -9 8 -2 0 -6 -4
-9 -8z"/>
<path d="M3456 1142 c-2 -4 -1 -14 4 -22 7 -11 9 -9 7 8 -1 24 -3 26 -11 14z"/>
<path d="M3555 1139 c-3 -4 2 -6 10 -5 21 3 28 13 10 13 -9 0 -18 -4 -20 -8z"/>
<path d="M3690 1140 c0 -5 5 -10 11 -10 5 0 7 5 4 10 -3 6 -8 10 -11 10 -2 0
-4 -4 -4 -10z"/>
<path d="M6235 1129 c-4 -6 -5 -12 -2 -15 2 -3 7 2 10 11 7 17 1 20 -8 4z"/>
<path d="M5659 1128 c-5 -18 -6 -38 -1 -34 7 8 12 36 6 36 -2 0 -4 -1 -5 -2z"/>
<path d="M5737 1115 c-4 -8 -3 -16 1 -19 4 -3 9 4 9 15 2 23 -3 25 -10 4z"/>
<path d="M3496 1098 c3 -4 11 -5 19 -1 21 7 19 12 -4 10 -11 0 -18 -5 -15 -9z"/>
<path d="M3615 1099 c-3 -4 2 -6 10 -5 21 3 28 13 10 13 -9 0 -18 -4 -20 -8z"/>
<path d="M3795 1099 c-3 -4 2 -6 10 -5 21 3 28 13 10 13 -9 0 -18 -4 -20 -8z"/>
<path d="M3930 1099 c0 -5 5 -7 10 -4 6 3 10 8 10 11 0 2 -4 4 -10 4 -5 0 -10
-5 -10 -11z"/>
<path d="M3976 1102 c-3 -4 4 -9 15 -9 23 -2 25 3 4 10 -8 4 -16 3 -19 -1z"/>
<path d="M5450 1099 c0 -5 5 -7 10 -4 6 3 10 8 10 11 0 2 -4 4 -10 4 -5 0 -10
-5 -10 -11z"/>
<path d="M5766 1098 c3 -5 10 -6 15 -3 13 9 11 12 -6 12 -8 0 -12 -4 -9 -9z"/>
<path d="M5816 1102 c-3 -5 1 -9 9 -9 8 0 12 4 9 9 -3 4 -7 8 -9 8 -2 0 -6 -4
-9 -8z"/>
<path d="M5874 1102 c4 -3 14 -7 22 -8 9 -1 13 0 10 4 -4 3 -14 7 -22 8 -9 1
-13 0 -10 -4z"/>
<path d="M3346 1078 c3 -5 10 -6 15 -3 13 9 11 12 -6 12 -8 0 -12 -4 -9 -9z"/>
</g>
</svg>
